<svg width="22" height="19" viewBox="0 0 22 19" fill="none" xmlns="http://www.w3.org/2000/svg">
<path d="M21.4407 12.8072C21.3183 12.4776 21.0246 12.2186 20.6573 12.1715L18.1357 11.8183L17.0096 9.62848C16.8137 9.29883 16.471 9.08691 16.1037 9.08691C15.7365 9.08691 15.3938 9.29883 15.2224 9.60494L14.0963 11.7948L11.5747 12.1479C11.2074 12.195 10.8892 12.4541 10.7912 12.7837C10.6688 13.1134 10.7668 13.4901 11.0361 13.7491L12.8722 15.468L12.4315 17.8933C12.3581 18.2465 12.5294 18.5997 12.8232 18.8116C13.117 19.0235 13.5332 19.0471 13.8514 18.8822L16.1037 17.752L18.3561 18.8822C18.5029 18.9529 18.6498 19 18.8212 19C19.0171 19 19.2374 18.9293 19.4088 18.8116C19.7025 18.5997 19.8494 18.2465 19.8005 17.8933L19.3598 15.468L21.1959 13.7491C21.4407 13.5136 21.5387 13.1369 21.4407 12.8072ZM17.6216 14.479C17.4013 14.691 17.2789 14.9971 17.3278 15.3032L17.4992 16.3392L16.5689 15.8683C16.422 15.7976 16.2751 15.7506 16.1037 15.7506C15.9324 15.7506 15.7855 15.7976 15.6386 15.8683L14.6838 16.3628L14.8552 15.3267C14.9042 15.0206 14.8062 14.7145 14.5614 14.5026L13.778 13.7727L14.8552 13.6314C15.1734 13.5843 15.4427 13.3959 15.5896 13.1134L16.0793 12.1715L16.5689 13.1134C16.7158 13.3959 16.9851 13.5843 17.3033 13.6314L18.3805 13.7727L17.6216 14.479Z" fill="#065883"/>
<path d="M1.01548 16.9139C0.91877 17.2531 0.991304 17.6408 1.25726 17.8831C1.45069 18.077 1.69247 18.1739 1.93425 18.1739C2.03096 18.1739 2.12768 18.1497 2.24857 18.1255L7.35016 16.4292C8.17222 16.6231 9.04263 16.72 9.91304 16.72C10.445 16.72 10.8802 16.2838 10.8802 15.7507C10.8802 15.2176 10.445 14.7815 9.91304 14.7815C9.16352 14.7815 8.414 14.7088 7.71283 14.5391C7.6403 14.5149 7.51941 14.4907 7.51941 14.4907C7.35016 14.4422 7.15673 14.4422 6.98749 14.5149L3.40912 15.7023L4.08611 13.5214C4.18282 13.1821 4.08611 12.7944 3.84433 12.5279C3.84433 12.5279 3.69926 12.3825 3.62672 12.3098C2.51453 11.1709 1.93425 9.81391 1.93425 8.36C1.93425 4.82214 5.51262 1.93855 9.91304 1.93855C14.3135 1.93855 17.8918 4.82214 17.8918 8.36C17.8918 8.8931 18.327 9.32928 18.859 9.32928C19.3909 9.32928 19.8261 8.8931 19.8261 8.36C19.8261 3.75594 15.3773 0 9.91304 0C4.44878 0 0 3.75594 0 8.36C0 10.2259 0.725345 12.019 2.07932 13.4729L1.01548 16.9139Z" fill="#065883"/>
</svg>
