<svg width="16" height="21" viewBox="0 0 16 21" fill="none" xmlns="http://www.w3.org/2000/svg">
<path d="M13.3257 20.6152C12.9175 20.6152 12.5085 20.5206 12.1276 20.3297L8.54496 18.5389C8.20315 18.368 7.79499 18.368 7.45411 18.5389L3.87078 20.3297C3.03538 20.747 2.0618 20.7033 1.26811 20.2115C0.473597 19.7207 0 18.8698 0 17.9371L0.000909039 3.63616C0.000909039 1.63081 1.63172 0 3.63707 0H12.3638C14.3692 0 16 1.63081 16 3.63616V17.939C16 18.8726 15.5255 19.7234 14.7319 20.2134C14.2992 20.4807 13.8138 20.6152 13.3265 20.6152L13.3257 20.6152ZM12.7784 19.0298C13.1657 19.2243 13.5984 19.2025 13.9657 18.9762C14.3338 18.7489 14.5447 18.3707 14.5447 17.9381V3.63614C14.5447 2.43348 13.5657 1.45445 12.363 1.45445H3.63625C2.43358 1.45445 1.45456 2.43348 1.45456 3.63614V17.939C1.45456 18.3717 1.66545 18.7498 2.03362 18.9771C2.40178 19.2043 2.83448 19.2253 3.22083 19.0307L6.80346 17.2399C7.55253 16.8645 8.44701 16.8645 9.19693 17.2399L12.7796 19.0307L12.7784 19.0298Z" fill="#065883"/>
<path d="M6.45698 11.9718C6.17062 11.9718 5.88792 11.8827 5.64974 11.7091C5.28068 11.441 5.06886 11.0083 5.08432 10.5519L5.12249 9.38198L4.41982 8.5093C4.13893 8.14931 4.0562 7.67481 4.1971 7.24029C4.338 6.80576 4.68436 6.47124 5.12251 6.34396L6.24789 6.01854L6.86058 5.08042C7.11694 4.70226 7.54237 4.47681 7.99869 4.47681C8.45502 4.47681 8.88047 4.70225 9.13681 5.07949L9.79313 6.04944L10.8749 6.34215C11.3139 6.46942 11.6603 6.80395 11.8003 7.23847C11.9403 7.67299 11.8585 8.1475 11.5776 8.50748L10.8585 9.43199L10.914 10.551C10.9294 11.0073 10.7176 11.4401 10.3486 11.7082C9.9795 11.9773 9.50134 12.0446 9.07317 11.8891L7.97141 11.491L6.9251 11.8891C6.77329 11.9446 6.61422 11.9709 6.45695 11.9709L6.45698 11.9718ZM7.99962 10.041C8.15779 10.041 8.31688 10.0683 8.46686 10.1228L9.45771 10.481L9.42317 9.42835C9.41226 9.10837 9.51498 8.79201 9.71224 8.53931L10.3595 7.70754L9.34679 7.41574C9.03772 7.32575 8.76954 7.1303 8.58956 6.86486L7.99868 5.99309L7.40779 6.86486C7.2278 7.1303 6.95963 7.32484 6.65147 7.41484L5.63879 7.70754L6.28602 8.5384C6.48328 8.79201 6.58601 9.10746 6.5751 9.42744L6.54055 10.4801L7.5314 10.1219C7.6823 10.0674 7.84047 10.0401 7.99865 10.0401L7.99962 10.041Z" fill="#065883"/>
</svg>
