<svg width="25" height="20" viewBox="0 0 25 20" fill="none" xmlns="http://www.w3.org/2000/svg">
<path d="M9.35564 7.20715H1.68919C0.757936 7.20715 0 7.96509 0 8.89634C0 9.8276 0.757936 10.5855 1.68919 10.5855H3.83763V17.9054C3.83763 18.837 4.59556 19.5945 5.52682 19.5945C6.45807 19.5945 7.216 18.837 7.216 17.9054V10.5855H9.35564C10.2869 10.5855 11.0448 9.8276 11.0448 8.89634C11.0448 7.96509 10.2869 7.20715 9.35564 7.20715Z" fill="#065883"/>
<path d="M23.3108 0H11.3198C10.3886 0 9.63062 0.757936 9.63062 1.68919C9.63062 2.62044 10.3886 3.37838 11.3198 3.37838H15.6303V17.9054C15.6303 18.8371 16.3878 19.5946 17.3195 19.5946C18.2512 19.5946 19.0087 18.8371 19.0087 17.9054V3.37838H23.3108C24.2425 3.37838 25 2.62044 25 1.68919C25 0.757936 24.2425 0 23.3108 0Z" fill="#065883"/>
</svg>
