<svg width="24" height="27" viewBox="0 0 24 27" fill="none" xmlns="http://www.w3.org/2000/svg">
<path d="M13.347 2.15999L13.347 2.16002C13.5609 1.84655 13.8857 1.62583 14.2559 1.54232C14.6256 1.45895 15.013 1.51856 15.3405 1.70913C15.341 1.70943 15.3415 1.70972 15.342 1.71002L20.7485 4.81797L13.347 2.15999ZM13.347 2.15999L13.3434 2.1654M13.347 2.15999L13.3434 2.1654M13.3434 2.1654L6.10339 13.0754L5.80898 13.519L6.27024 13.785L14.8202 18.715L15.2809 18.9806L15.5177 18.5046L21.3477 6.78456L21.3485 6.78297M13.3434 2.1654L21.3485 6.78297M21.3485 6.78297C21.5173 6.44058 21.5492 6.04671 21.4377 5.68162C21.3263 5.31679 21.0801 5.00811 20.7492 4.81839L21.3485 6.78297ZM10.4019 23.012C10.3979 23.0119 10.394 23.0118 10.39 23.0116V21.6467L10.4876 21.5408C11.1874 20.7817 12.0364 20.1753 12.9814 19.7595L13.8848 19.362L13.0299 18.8688L7.11988 15.4588L6.27846 14.9733L6.37234 15.9402C6.47209 16.9675 6.35405 18.0043 6.02594 18.9829L5.805 19.6419H6.44453L9.74759 21.5735L9.76174 21.5818L9.77639 21.5891L9.89639 21.6491L10.2092 21.8055L9.45588 23.1238L9.01588 23.8938L8.58841 24.6419H9.45H21C21.1326 24.6419 21.2598 24.6945 21.3536 24.7883C21.4473 24.8821 21.5 25.0093 21.5 25.1419C21.5 25.2745 21.4473 25.4017 21.3536 25.4954C21.2598 25.5892 21.1326 25.6419 21 25.6419H1C0.867391 25.6419 0.740214 25.5892 0.646447 25.4954C0.552679 25.4017 0.5 25.2745 0.5 25.1419C0.5 25.0093 0.552679 24.8821 0.646447 24.7883C0.740214 24.6945 0.867391 24.6419 1 24.6419H2.52H2.80768L2.95227 24.3932L5.13227 20.6432L5.37957 20.2177L4.95817 19.9637C4.83954 19.8921 4.75168 19.7792 4.71147 19.6468C4.69557 19.5849 4.69167 19.5205 4.70001 19.4571C4.70859 19.3919 4.72995 19.3291 4.76287 19.2721L4.76989 19.26L4.77622 19.2474C5.18801 18.4329 5.39706 17.5309 5.3856 16.6182C5.37415 15.7056 5.14253 14.8091 4.71042 14.0052L4.69986 13.9855L4.68758 13.9669C4.63382 13.8852 4.60516 13.7896 4.60516 13.6919C4.60516 13.5943 4.63371 13.4989 4.68727 13.4173C4.68737 13.4172 4.68748 13.417 4.68758 13.4169L12.5067 1.61822C12.5067 1.61817 12.5068 1.61812 12.5068 1.61807C12.8584 1.08796 13.3989 0.711833 14.0182 0.566305C14.6375 0.420763 15.289 0.516814 15.84 0.834889L15.8402 0.834999L21.2502 3.955L21.2502 3.95507L21.258 3.95942C21.823 4.27183 22.2452 4.79068 22.4362 5.40734C22.6273 6.02399 22.5724 6.69066 22.283 7.26775L22.2823 7.26925L15.9823 19.9393L15.9823 19.9392L15.9798 19.9444C15.9352 20.0366 15.8633 20.113 15.7739 20.1631C15.6845 20.2132 15.5818 20.2346 15.4798 20.2244L15.4476 20.2211L15.4153 20.2221C14.5037 20.2488 13.612 20.4951 12.8159 20.9399C12.0197 21.3848 11.3426 22.0151 10.8421 22.7774L10.8354 22.7875L10.8293 22.7979C10.7658 22.9056 10.6645 22.9853 10.5455 23.0219C10.5226 23.0243 10.4994 23.0234 10.4767 23.0194L10.4395 23.0129L10.4019 23.012ZM7.14 24.6419H7.42813L7.5726 24.3926L8.5926 22.6326L8.8436 22.1995L8.41022 21.949L6.68022 20.949L6.24788 20.6991L5.99743 21.1311L4.39743 23.8911L3.9622 24.6419H4.83H7.14Z" fill="#065883" stroke="#065883"/>
</svg>
