<svg width="23" height="26" viewBox="0 0 23 26" fill="none" xmlns="http://www.w3.org/2000/svg">
<path d="M14.5905 21.2198H8.41273C8.03181 21.2198 7.72153 20.9095 7.72153 20.5286V17.8283C5.49434 16.4981 4.13037 14.1112 4.13037 11.503C4.13037 7.43879 7.43891 4.13025 11.5032 4.13025C15.5674 4.13025 18.8759 7.43879 18.8759 11.503C18.8759 14.1142 17.5089 16.4981 15.2848 17.8283V20.5286C15.2848 20.9095 14.9745 21.2198 14.5936 21.2198H14.5905ZM9.10393 19.8374H13.8993V17.4228C13.8993 17.1647 14.0437 16.9313 14.271 16.8114C16.2586 15.7731 17.4936 13.7395 17.4936 11.503C17.4936 8.20064 14.8056 5.51265 11.5032 5.51265C8.20077 5.51265 5.51277 8.20064 5.51277 11.503C5.51277 13.7395 6.74771 15.7731 8.73529 16.8114C8.96262 16.9313 9.107 17.1678 9.107 17.4228V19.8374H9.10393Z" fill="white"/>
<path d="M14.5535 23.5115H8.44636C7.5309 23.5115 7.5309 22.1292 8.44636 22.1292H14.5535C15.4689 22.1292 15.4689 23.5115 14.5535 23.5115Z" fill="white"/>
<path d="M13.4874 25.8001H9.51227C8.59682 25.8001 8.59682 24.4177 9.51227 24.4177H13.4874C14.4029 24.4177 14.4029 25.8001 13.4874 25.8001Z" fill="white"/>
<path d="M10.8086 2.37619V0.686591C10.8086 -0.228864 12.191 -0.228864 12.191 0.686591V2.37619C12.191 3.29164 10.8086 3.29164 10.8086 2.37619Z" fill="white"/>
<path d="M4.5601 5.53726L3.3651 4.34225C2.71691 3.69406 3.69687 2.71716 4.34199 3.36535L5.537 4.56036C6.18212 5.20855 5.20215 6.1793 4.5601 5.53726Z" fill="white"/>
<path d="M2.37619 12.1911H0.686591C-0.228864 12.1911 -0.228864 10.8087 0.686591 10.8087H2.37619C3.29164 10.8087 3.29164 12.1911 2.37619 12.1911Z" fill="white"/>
<path d="M3.36548 18.6578L4.56048 17.4628C5.20867 16.8146 6.18557 17.7945 5.53738 18.4396L4.34237 19.6347C3.69418 20.2828 2.71729 19.3029 3.36548 18.6578Z" fill="white"/>
<path d="M17.4629 4.56035L18.6579 3.36534C19.3061 2.71715 20.283 3.69712 19.6348 4.34224L18.4398 5.53724C17.7977 6.17929 16.8147 5.20547 17.4629 4.56035Z" fill="white"/>
<path d="M22.3132 12.1911H20.6236C19.7081 12.1911 19.7081 10.8087 20.6236 10.8087H22.3132C23.2287 10.8087 23.2287 12.1911 22.3132 12.1911Z" fill="white"/>
<path d="M18.6578 19.6377L17.4628 18.4427C16.8146 17.7945 17.7945 16.8176 18.4396 17.4658L19.6347 18.6608C20.2798 19.309 19.3029 20.2859 18.6578 19.6377Z" fill="white"/>
</svg>
