<svg width="21" height="19" viewBox="0 0 21 19" fill="none" xmlns="http://www.w3.org/2000/svg">
<path d="M20.4827 11.3897C18.8391 10.8273 14.8986 9.5417 13.78 9.73191C12.0581 10.0287 8.73534 11.0136 8.59458 11.0555C8.578 11.0604 8.56156 11.0659 8.54527 11.0721C7.67281 11.3973 7.11847 11.9575 6.93124 12.6607C6.0026 12.3762 4.4186 11.8951 3.08189 11.5087C2.36587 11.3013 1.66121 11.3766 1.0982 11.7198C0.550873 12.0531 0.173887 12.6206 0.0364211 13.3172C-0.154836 14.287 0.422373 15.2223 1.41048 15.5505L6.10316 17.3462C6.89015 17.6394 8.1003 17.8784 9.04807 17.7487L17.5206 16.395C17.9034 16.5794 18.9506 17.2766 19.7867 17.8811C19.9194 17.9773 20.0769 18.0264 20.235 18.0264C20.3539 18.0264 20.4731 17.9986 20.5831 17.9427C20.8389 17.8118 21 17.5488 21 17.2613V12.1135C21 11.7864 20.792 11.4957 20.4827 11.3897ZM19.4699 15.7925C18.0424 14.8377 17.7516 14.8467 17.5598 14.8467C17.5245 14.8476 17.4889 14.8506 17.454 14.8563L8.82364 16.2354C8.19713 16.3197 7.22933 16.1332 6.64391 15.9147L1.93973 14.1145C1.92658 14.1095 1.91328 14.105 1.89998 14.1005C1.58172 13.9986 1.50581 13.7745 1.53749 13.6134C1.57529 13.4218 1.66793 13.1642 1.89431 13.0265C2.00607 12.9583 2.14384 12.924 2.29834 12.924C2.4104 12.924 2.53113 12.9422 2.65694 12.9784C4.36959 13.4735 6.49464 14.1265 7.10009 14.3133C7.48141 15.1428 8.27527 15.5194 9.33391 15.3499L14.2098 14.4899C14.6258 14.4164 14.9037 14.0198 14.8302 13.6035C14.7569 13.1875 14.3607 12.9087 13.9438 12.9831L9.08064 13.8411C8.55484 13.9242 8.51375 13.7843 8.44516 13.5518C8.31741 13.1191 8.37314 12.7763 9.05659 12.5146C9.3744 12.4207 12.4831 11.5081 14.037 11.2403C14.5699 11.1689 17.1665 11.8963 19.4699 12.6628V15.7925Z" fill="#065883"/>
<path d="M6.2711 10.4781C6.07537 10.4781 5.87948 10.4034 5.73021 10.254L1.59173 6.11548C-0.140793 4.38311 0.184045 2.24522 1.40047 1.02879C2.49288 -0.0636177 4.3288 -0.436569 5.94597 0.752961C7.63097 -0.489016 9.57552 -0.0688474 10.7452 1.10036C12.0421 2.39747 12.4178 4.64833 10.6256 6.44032L6.812 10.254C6.66273 10.4034 6.46684 10.4781 6.2711 10.4781ZM3.80135 1.54802C3.28764 1.54802 2.82369 1.76946 2.48242 2.11074C1.80256 2.7906 1.598 3.95801 2.67353 5.03369L6.2711 8.63111L9.54384 5.35852C10.6821 4.22024 10.4239 2.94301 9.66308 2.18231C8.90253 1.42146 7.62559 1.16357 6.48717 2.30185C6.18862 2.60068 5.70391 2.60068 5.40537 2.30185C4.86955 1.76618 4.31102 1.54802 3.80135 1.54802Z" fill="#065883"/>
</svg>
