<svg width="37" height="36" viewBox="0 0 37 36" fill="none" xmlns="http://www.w3.org/2000/svg">
<path d="M16.5979 1.8541C17.1966 0.0114784 19.8034 0.0114808 20.4021 1.8541L23.3271 10.8561C23.5948 11.6802 24.3627 12.2381 25.2292 12.2381H34.6945C36.6319 12.2381 37.4375 14.7173 35.87 15.8561L28.2124 21.4197C27.5115 21.929 27.2182 22.8317 27.4859 23.6558L30.4108 32.6578C31.0095 34.5004 28.9006 36.0327 27.3332 34.8939L19.6756 29.3303C18.9746 28.821 18.0254 28.821 17.3244 29.3303L9.66684 34.8939C8.09941 36.0327 5.99046 34.5004 6.58916 32.6578L9.5141 23.6558C9.78185 22.8317 9.48853 21.929 8.78755 21.4197L1.12997 15.8561C-0.437461 14.7173 0.368092 12.2381 2.30554 12.2381H11.7708C12.6373 12.2381 13.4052 11.6802 13.6729 10.8561L16.5979 1.8541Z" fill="#FEBD01"/>
</svg>
