<svg width="38" height="37" viewBox="0 0 38 37" fill="none" xmlns="http://www.w3.org/2000/svg">
<g filter="url(#filter0_d_83_135)">
<path d="M17.0979 5.8541C17.6966 4.01148 20.3034 4.01148 20.9021 5.8541L23.0413 12.4377C23.309 13.2617 24.0769 13.8197 24.9434 13.8197H31.8658C33.8032 13.8197 34.6088 16.2989 33.0413 17.4377L27.441 21.5066C26.74 22.0159 26.4467 22.9186 26.7145 23.7426L28.8536 30.3262C29.4523 32.1689 27.3433 33.7011 25.7759 32.5623L20.1756 28.4934C19.4746 27.9841 18.5254 27.9841 17.8244 28.4934L12.2241 32.5623C10.6567 33.7011 8.5477 32.1689 9.14641 30.3262L11.2855 23.7426C11.5533 22.9186 11.26 22.0159 10.559 21.5066L4.95867 17.4377C3.39124 16.2989 4.19679 13.8197 6.13424 13.8197H13.0566C13.9231 13.8197 14.691 13.2617 14.9587 12.4377L17.0979 5.8541Z" fill="white"/>
</g>
<defs>
<filter id="filter0_d_83_135" x="0.130432" y="0.472134" width="37.7391" height="36.4812" filterUnits="userSpaceOnUse" color-interpolation-filters="sRGB">
<feFlood flood-opacity="0" result="BackgroundImageFix"/>
<feColorMatrix in="SourceAlpha" type="matrix" values="0 0 0 0 0 0 0 0 0 0 0 0 0 0 0 0 0 0 127 0" result="hardAlpha"/>
<feOffset/>
<feGaussianBlur stdDeviation="2"/>
<feComposite in2="hardAlpha" operator="out"/>
<feColorMatrix type="matrix" values="0 0 0 0 0 0 0 0 0 0 0 0 0 0 0 0 0 0 0.25 0"/>
<feBlend mode="normal" in2="BackgroundImageFix" result="effect1_dropShadow_83_135"/>
<feBlend mode="normal" in="SourceGraphic" in2="effect1_dropShadow_83_135" result="shape"/>
</filter>
</defs>
</svg>
