<svg width="182" height="123" viewBox="0 0 182 123" fill="none" xmlns="http://www.w3.org/2000/svg">
<ellipse cx="100.5" cy="52" rx="47.5" ry="50" fill="white"/>
<circle cx="55.5" cy="48.5" r="33.5" fill="white"/>
<circle cx="132" cy="86" r="29" fill="white"/>
<circle cx="143" cy="53" r="25" fill="white"/>
<circle cx="17.5" cy="92.5" r="17.5" fill="white"/>
<circle cx="153.5" cy="10.5" r="10.5" fill="white"/>
<circle cx="175" cy="74" r="7" fill="white"/>
<circle cx="71" cy="86" r="29" fill="white"/>
<path d="M95.1554 39.5105L57.1578 45.0886L65.0563 98.8927L103.054 93.3146L95.1554 39.5105Z" fill="#083B5A"/>
<path d="M51.9548 36.1781L91.3579 30.3937L100.647 93.6679L61.5361 99.4094C59.7438 99.6725 58.0751 98.4309 57.812 96.6386L49.4338 39.5666C49.1944 37.9359 50.324 36.4175 51.9548 36.1781Z" fill="#065883"/>
<path d="M89.0032 35.7725C88.803 34.4089 89.2276 33.1004 90.0563 32.1282L56.0964 37.1135C53.8984 37.4362 52.3782 39.4794 52.7009 41.6775C53.0235 43.8753 55.0669 45.3956 57.2648 45.073L94.2136 39.6488C91.7044 40.0172 89.3716 38.2817 89.0032 35.7725Z" fill="#F7F1EB"/>
<path d="M89.0544 34.3587L60.618 38.5332C60.5559 38.5423 60.4981 38.4994 60.489 38.4372C60.4799 38.375 60.5229 38.3173 60.585 38.3082L89.0213 34.1337C89.0835 34.1246 89.1412 34.1675 89.1504 34.2297C89.1595 34.2919 89.1165 34.3496 89.0544 34.3587Z" fill="#E6D0BE"/>
<path d="M89.3794 36.5735L56.5137 41.3982C56.4516 41.4073 56.3938 41.3644 56.3847 41.3022C56.3756 41.24 56.4185 41.1823 56.4807 41.1732L89.3464 36.3485C89.4085 36.3394 89.4663 36.3823 89.4754 36.4445C89.4846 36.5067 89.4416 36.5644 89.3794 36.5735Z" fill="#E6D0BE"/>
<path d="M90.0824 38.2802L61.6461 42.4547C61.584 42.4638 61.5262 42.4209 61.5171 42.3587C61.5079 42.2965 61.5509 42.2388 61.6131 42.2297L90.0494 38.0552C90.1115 38.0461 90.1693 38.089 90.1784 38.1512C90.1876 38.2134 90.1446 38.2711 90.0824 38.2802Z" fill="#E6D0BE"/>
<path d="M65.7527 82.5864C65.6906 82.5956 65.6328 82.5526 65.6237 82.4904L60.9781 50.8453C60.969 50.7831 61.012 50.7254 61.0741 50.7163L77.2694 48.3388C77.3316 48.3297 77.3893 48.3726 77.3985 48.4348C77.4076 48.497 77.3646 48.5547 77.3025 48.5638L61.2197 50.9248L65.8487 82.4574C65.8578 82.5196 65.8148 82.5773 65.7527 82.5864Z" fill="#EFBC73"/>
<path d="M95.1512 88.2721L75.6111 91.1406C75.549 91.1497 75.4913 91.1068 75.4821 91.0446C75.473 90.9824 75.516 90.9247 75.5781 90.9156L95.0057 88.0636L91.334 63.0523C91.3249 62.9901 91.3679 62.9323 91.43 62.9232C91.4921 62.9141 91.5499 62.957 91.559 63.0192L95.2472 88.143C95.2564 88.2052 95.2134 88.2629 95.1512 88.2721Z" fill="#EFBC73"/>
<path d="M80.9516 77.4048L78.374 77.7832C78.3118 77.7923 78.2541 77.7494 78.2449 77.6872L76.4967 65.7784L70.952 66.5924C70.8899 66.6015 70.8321 66.5586 70.823 66.4964L70.4446 63.9188C70.4354 63.8566 70.4784 63.7989 70.5406 63.7897L76.0853 62.9758L75.2965 57.6029C75.2874 57.5408 75.3304 57.483 75.3925 57.4739L77.9702 57.0955C78.0323 57.0864 78.0901 57.1293 78.0992 57.1915L78.8879 62.5643L84.2265 61.7806C84.2886 61.7715 84.3464 61.8144 84.3555 61.8766L84.7339 64.4543C84.743 64.5164 84.7001 64.5742 84.6379 64.5833L79.2994 65.367L81.0476 77.2758C81.0567 77.3379 81.0137 77.3957 80.9516 77.4048ZM78.4534 77.5416L80.8061 77.1963L79.0578 65.2875C79.0487 65.2253 79.0917 65.1676 79.1538 65.1585L84.4924 64.3748L84.147 62.0222L78.8085 62.8059C78.7463 62.815 78.6886 62.7721 78.6794 62.7099L77.8907 57.3371L75.5381 57.6824L76.3268 63.0552C76.336 63.1174 76.293 63.1751 76.2308 63.1843L70.6861 63.9982L71.0315 66.3509L76.5762 65.5369C76.6383 65.5278 76.6961 65.5707 76.7052 65.6329L78.4534 77.5416Z" fill="#EFBC73" stroke="#EFBC73" stroke-width="0.7"/>
<path d="M90.0261 39.9833L95.3897 39.1959L96.177 44.5595L94.2383 44.8441C92.3481 45.1216 90.5882 43.8123 90.3107 41.922L90.0261 39.9833Z" fill="#FFD691"/>
<path d="M102.575 88.1404L103.362 93.504L97.9986 94.2914L97.714 92.3527C97.4365 90.4624 98.7459 88.7025 100.636 88.425L102.575 88.1404Z" fill="#FFD691"/>
<path d="M61.7475 97.4409C61.6854 97.45 61.6277 97.4071 61.6185 97.3449L54.3916 48.1158C54.3825 48.0536 54.4255 47.9959 54.4876 47.9868C54.5498 47.9777 54.6075 48.0206 54.6167 48.0828L61.8435 97.3119C61.8527 97.3741 61.8097 97.4318 61.7475 97.4409Z" fill="#FEBD01"/>
<path d="M59.3642 95.0759C59.3021 95.0851 59.2443 95.0421 59.2352 94.9799L52.0083 45.7508C51.9991 45.6886 52.0421 45.6309 52.1043 45.6218C52.1664 45.6127 52.2242 45.6556 52.2333 45.7178L59.4602 94.9469C59.4693 95.0091 59.4263 95.0668 59.3642 95.0759Z" fill="#FEBD01"/>
<g opacity="0.54">
<path d="M101.577 107.555C100.454 110.46 99.62 113.467 99.0884 116.536C99.0089 116.995 99.211 117.466 99.6913 117.598C100.107 117.712 100.673 117.457 100.753 116.995C101.285 113.926 102.119 110.919 103.242 108.014C103.41 107.579 103.057 107.067 102.639 106.952C102.151 106.818 101.746 107.119 101.577 107.555Z" fill="#FFF2FF"/>
</g>
<path d="M117.824 69.6562C117.888 69.4052 117.987 68.8749 117.817 68.2423C117.613 67.4783 117.14 67.0208 116.947 66.8525C116.947 66.8525 116.006 65.9973 114.792 65.3922C101.921 58.9767 88.2223 64.1056 87.5851 65.459C87.3315 65.9976 87.2076 66.5709 87.2076 66.5709C87.2076 66.5709 87.0813 67.1548 87.0931 67.7873C87.1938 73.2425 89.5455 85.0145 89.5455 85.0145C89.7542 86.0592 90.1725 89.4468 92.1244 95.9202C92.7072 97.8531 93.4332 99.8304 94.8201 101.152C95.682 101.974 96.7419 102.485 97.7845 102.984C100.311 104.193 102.837 105.402 105.364 106.611C106.365 107.09 107.403 107.578 108.494 107.56C109.266 107.548 110.017 107.282 110.737 106.967C113.227 105.876 115.636 103.944 116.466 101.105C116.531 100.883 116.586 100.645 116.535 100.419C116.477 100.162 116.294 99.9692 116.13 99.7791C115.644 99.2184 114.334 95.2403 114.141 92.9016C113.886 89.828 114.772 81.573 117.71 70.8725" fill="#065884"/>
<path d="M108.355 78.8094C108.466 78.8094 108.466 78.6368 108.355 78.6368C108.244 78.6368 108.244 78.8094 108.355 78.8094Z" fill="#065884"/>
<path d="M121.636 89.8264C121.079 83.831 120.203 77.8436 119.013 71.9052C118.787 70.7786 118.546 69.6392 118.06 68.5942C117.575 67.5491 116.814 66.5928 115.83 66.1401C114.847 65.6875 113.635 65.8408 113 66.6839C112.518 67.3229 112.427 68.2253 112.405 69.0827C112.295 73.47 113.543 77.8643 114.777 82.1581C115.282 83.9163 115.795 85.6939 116.658 87.3038C117.217 88.3473 117.956 89.3416 118.943 89.8787C119.93 90.4158 121.198 90.3851 121.902 89.5665" fill="#EF8E8F"/>
<path d="M113.028 78.7243C113.822 79.303 114.616 79.8817 115.41 80.4605C117.007 81.6237 118.623 82.8065 119.826 84.3511C121.029 85.8957 121.788 87.8739 121.433 89.8267C121.377 90.1345 121.291 90.4458 121.108 90.7077C120.692 91.3046 119.872 91.5075 119.143 91.4796C117.722 91.4252 116.429 90.6876 115.453 89.7186C114.477 88.7497 113.773 87.5571 113.079 86.3777C112.188 84.8638 111.298 83.3498 110.407 81.8359C110.407 81.8359 112.931 78.6537 113.028 78.7243Z" fill="#EF8E8F"/>
<path d="M112.976 78.9433C112.625 77.9432 111.949 77.0845 111.283 76.2449C110.262 74.9571 109.241 73.6693 108.22 72.3815C108.015 72.1226 107.793 71.8517 107.474 71.7359C107.222 71.6443 106.941 71.6626 106.67 71.6821C104.967 71.8054 103.263 71.9286 101.559 72.0518C101.024 72.6885 100.104 74.6191 99.5648 75.6068C99.4483 75.8205 100.532 75.9056 101.204 75.3374C101.733 74.8891 102.245 73.6646 102.625 73.5102C102.904 73.3968 104.589 73.7887 104.887 73.8556C104.473 74.696 102.853 74.5891 102.658 75.4963C102.545 76.0206 103.088 76.4983 103.644 76.5561C104.201 76.6139 104.743 76.3793 105.253 76.1505C104.553 76.1535 103.639 76.3654 103.385 76.9896C103.332 77.1201 103.531 77.5013 103.576 77.6335C103.693 77.9803 104.228 77.9715 104.565 77.7938C104.902 77.616 105.218 77.332 105.601 77.3454C105.242 77.4494 104.872 77.5589 104.584 77.7891C104.296 78.0194 104.109 78.4047 104.234 78.7391C104.367 79.0962 104.959 79.0799 105.333 79.2103C105.653 79.322 106.302 79.1853 106.268 78.8613C106.259 78.783 106.134 79.133 106.152 79.0559C106.203 78.8382 106.327 78.8476 106.487 79.0077C106.939 79.4594 107.556 79.7583 108.208 79.8414C108.516 79.8806 108.88 79.8993 109.046 80.1484C109.132 80.2788 110.714 82.1617 110.791 82.2976C110.997 82.6618 111.382 82.0312 111.808 81.9369C112.314 81.8249 111.406 80.5747 111.896 80.4093C112.318 80.2671 112.756 80.0883 113.017 79.741C113.278 79.3937 113.268 78.8313 112.886 78.6161" fill="#EF8E8F"/>
<path d="M101.924 90.6655C99.6248 89.6697 97.3253 88.6739 95.0258 87.6781C92.6091 86.6315 89.9676 85.5635 87.4158 86.2146C86.7899 86.3743 86.1794 86.6429 85.704 87.0803C85.0672 87.6661 84.7257 88.4973 84.4033 89.3003C84.3264 89.4918 84.248 89.6945 84.2777 89.8988C84.3097 90.1192 84.4616 90.3008 84.6102 90.4667C86.4235 92.4904 88.7951 94.1441 91.4845 94.5316C92.3509 94.6565 99.9186 96.771 100.792 96.8345C106.166 97.2254 110.984 98.7234 112.595 98.7077C112.883 98.7048 113.185 98.6989 113.44 98.5637C113.683 98.4346 113.854 98.2035 114.009 97.9754C114.664 97.0103 115.193 95.9594 115.577 94.8582" fill="#EF8E8F"/>
<path d="M90.3171 86.4334C90.9512 84.0423 91.5854 81.6512 92.2195 79.2601C92.4556 78.3699 92.6921 77.4779 92.8481 76.5706C93.1726 74.6837 93.1441 72.7574 92.9709 70.8651C92.8683 69.7429 92.7113 68.6125 92.2925 67.5869C91.8737 66.5614 91.1647 65.6396 90.1983 65.1965C89.2318 64.7535 87.9943 64.869 87.1951 65.6443C86.4449 66.372 86.2006 67.4962 86.0077 68.5445C84.779 75.2206 84.0006 81.9745 83.6616 88.7375C83.6349 89.269 83.6519 89.894 84.0604 90.1869C84.484 90.4906 85.0659 90.2524 85.5389 90.0097C87.3804 89.0648 89.3599 87.9784 90.2554 86.0256" fill="#EF8E8F"/>
<mask id="mask0_112_662" style="mask-type:luminance" maskUnits="userSpaceOnUse" x="109" y="111" width="18" height="10">
<path d="M125.802 113.811C125.116 113.011 124.017 112.723 122.983 112.521C119.858 111.912 116.655 111.708 113.479 111.914C112.8 111.959 112.096 112.03 111.514 112.383C110.349 113.089 109.636 114.72 109.981 115.958C110.075 116.298 110.247 116.6 110.398 116.835C110.452 116.877 110.503 116.923 110.555 116.969C111.275 117.228 113.162 118.183 115.644 119.078C118.755 120.199 121.045 120.605 123.03 120.235C123.824 120.088 124.615 119.797 125.203 119.244C125.753 118.726 126.085 118.013 126.288 117.286C126.615 116.112 126.595 114.736 125.802 113.811Z" fill="white"/>
</mask>
<g mask="url(#mask0_112_662)">
<path d="M122.982 120.24C121.007 120.6 118.729 120.191 115.64 119.077C113.158 118.185 111.276 117.228 110.552 116.97C110.499 116.924 110.451 116.879 110.398 116.833C110.249 116.599 110.072 116.298 109.979 115.96C109.637 114.72 110.35 113.09 111.512 112.383C112.095 112.032 112.801 111.959 113.48 111.913C116.656 111.709 119.855 111.911 122.983 112.521L122.995 112.523C122.113 113.31 121.621 114.582 121.563 115.839C121.505 117.16 121.887 118.456 122.496 119.562C122.627 119.812 122.781 120.058 122.982 120.24Z" fill="#065884"/>
<path d="M126.286 117.286C126.085 118.015 125.754 118.726 125.2 119.241C125.053 119.382 124.891 119.504 124.718 119.613C124.212 119.937 123.622 120.126 123.028 120.233C123.011 120.237 122.999 120.242 122.982 120.24C122.781 120.058 122.627 119.812 122.496 119.562C121.887 118.456 121.505 117.16 121.563 115.839C121.621 114.582 122.113 113.31 122.995 112.523C123.973 112.714 125.002 112.979 125.686 113.689C125.728 113.728 125.765 113.766 125.801 113.81C126.595 114.738 126.612 116.113 126.286 117.286Z" fill="#FFDEF1"/>
<path d="M119.201 117.518C119.152 116.34 119.288 115.163 119.609 114.028C119.663 113.834 119.362 113.751 119.308 113.945C118.98 115.104 118.839 116.314 118.889 117.518C118.897 117.718 119.209 117.719 119.201 117.518Z" fill="#FFDEF1"/>
<path d="M120.007 113.925C120.05 113.699 119.872 113.475 119.609 113.426C119.346 113.376 119.099 113.519 119.056 113.744C119.013 113.97 119.191 114.194 119.454 114.244C119.717 114.293 119.965 114.15 120.007 113.925Z" stroke="#FFDEF1" stroke-width="0.151116" stroke-miterlimit="10"/>
<path d="M119.52 117.608C119.563 117.382 119.385 117.159 119.122 117.109C118.859 117.059 118.612 117.202 118.569 117.428C118.526 117.654 118.705 117.877 118.967 117.927C119.23 117.977 119.478 117.834 119.52 117.608Z" stroke="#FFDEF1" stroke-width="0.151116" stroke-miterlimit="10"/>
<path d="M116.991 117.1C116.942 115.921 117.078 114.744 117.399 113.609C117.454 113.416 117.152 113.333 117.098 113.526C116.77 114.686 116.629 115.896 116.679 117.1C116.687 117.3 116.999 117.301 116.991 117.1Z" fill="#FFDEF1"/>
<path d="M117.798 113.506C117.84 113.28 117.662 113.057 117.399 113.007C117.137 112.957 116.889 113.1 116.846 113.326C116.803 113.552 116.982 113.775 117.244 113.825C117.507 113.875 117.755 113.732 117.798 113.506Z" stroke="#FFDEF1" stroke-width="0.151116" stroke-miterlimit="10"/>
<path d="M117.311 117.19C117.353 116.964 117.175 116.74 116.912 116.691C116.65 116.641 116.402 116.784 116.359 117.01C116.316 117.236 116.495 117.459 116.757 117.509C117.02 117.558 117.268 117.416 117.311 117.19Z" stroke="#FFDEF1" stroke-width="0.151116" stroke-miterlimit="10"/>
<path d="M114.567 116.657C114.511 115.522 114.638 114.387 114.951 113.294C115.005 113.104 114.71 113.023 114.656 113.212C114.336 114.33 114.203 115.497 114.261 116.657C114.271 116.853 114.577 116.854 114.567 116.657Z" fill="#FFDEF1"/>
<path d="M115.352 113.198C115.393 112.98 115.213 112.763 114.95 112.714C114.688 112.664 114.441 112.8 114.4 113.017C114.359 113.235 114.538 113.452 114.801 113.501C115.064 113.551 115.31 113.415 115.352 113.198Z" stroke="#FFDEF1" stroke-width="0.148313" stroke-miterlimit="10"/>
<path d="M114.89 116.747C114.931 116.53 114.752 116.313 114.489 116.263C114.226 116.213 113.98 116.349 113.938 116.567C113.897 116.785 114.077 117.001 114.34 117.051C114.602 117.101 114.849 116.965 114.89 116.747Z" stroke="#FFDEF1" stroke-width="0.148313" stroke-miterlimit="10"/>
<g opacity="0.23">
<path d="M121.868 114.286C119.785 114.252 117.738 114.164 115.704 113.682C114.731 113.451 113.763 113.229 112.774 113.086C111.776 112.942 110.773 112.849 109.769 112.765C109.493 112.742 109.494 113.173 109.769 113.196C110.792 113.281 111.816 113.374 112.832 113.527C113.838 113.678 114.82 113.919 115.811 114.149C117.805 114.612 119.829 114.683 121.868 114.717C122.145 114.721 122.145 114.291 121.868 114.286Z" fill="#FFDEF1"/>
</g>
<g opacity="0.23">
<path d="M122.234 117.328C119.943 116.777 117.655 116.142 115.319 115.81C113.018 115.483 110.684 115.356 108.424 114.779C108.156 114.711 108.041 115.126 108.31 115.195C110.57 115.771 112.903 115.898 115.205 116.225C117.541 116.557 119.829 117.193 122.12 117.743C122.389 117.808 122.504 117.393 122.234 117.328Z" fill="#FFDEF1"/>
</g>
</g>
<path d="M113.635 111.564C105.65 106.839 98.1402 101.313 91.2545 95.0946C88.3078 92.4336 85.2886 89.5412 81.4347 88.5862C79.9736 88.2242 78.3248 88.1923 77.0718 89.0264C75.8038 89.8705 75.1893 91.475 75.2327 92.9976C75.276 94.5201 75.8906 95.9721 76.6526 97.291C79.8203 102.774 85.541 106.39 91.5441 108.404C94.4273 109.371 97.4325 110.026 100.165 111.362C103.21 112.851 105.792 115.125 108.662 116.93C108.928 117.097 109.216 117.266 109.53 117.259C109.997 117.249 110.359 116.864 110.648 116.498C111.966 114.824 112.981 112.911 113.627 110.88" fill="#32224C"/>
<path d="M102.713 106.3C108.437 99.8679 114.458 93.2226 122.37 90.0866C125.737 88.7522 129.36 88.1076 132.965 88.2017C133.809 88.2237 134.667 88.2891 135.453 88.603C136.24 88.9168 136.955 89.5138 137.244 90.3286C137.688 91.5829 137.04 92.9601 136.283 94.0477C134.187 97.0614 131.178 99.2642 128.118 101.221C123.003 104.491 117.574 107.242 111.936 109.42C111.336 109.651 110.727 109.878 110.09 109.948C108.92 110.077 107.761 109.667 106.682 109.188C105.095 108.484 103.46 107.484 102.85 105.823" fill="#32224C"/>
<path d="M75.825 90.5318C74.5237 92.8539 75.0169 95.7279 75.5767 98.3302C76.2803 101.601 77.0394 104.885 78.3986 107.942C79.7578 110.998 81.7657 113.844 84.5433 115.709C85.8836 116.609 87.3857 117.267 88.9558 117.643C91.244 118.19 93.7349 118.115 95.856 117.097C97.9772 116.078 99.6616 114.037 99.9322 111.7C100.282 108.681 98.3419 105.876 96.1809 103.738C94.8347 102.407 93.3678 101.204 91.9033 100.004C89.8892 98.3525 87.8751 96.7015 85.861 95.0504C84.3479 93.8101 82.8188 92.5592 81.0704 91.681C79.322 90.8028 77.3107 90.3165 75.3925 90.7016" fill="#32224C"/>
<path d="M103.88 113.101C105.423 109.211 114.051 102.242 114.051 102.242C118.994 98.2493 117.693 97.917 122.918 94.0387C126.146 91.6431 129.821 89.7648 133.76 89.1865C135.013 89.0024 136.501 89.0468 137.267 90.0813C137.777 90.7693 137.808 91.7093 137.72 92.5699C137.417 95.5101 135.96 98.2382 134.018 100.423C132.075 102.607 129.664 104.295 127.181 105.793C123.718 107.882 120.077 109.637 116.524 111.558C115.247 112.249 113.976 112.964 112.829 113.863C110.865 115.401 109.089 117.551 106.636 117.824C106.055 117.888 105.417 117.818 104.985 117.415C104.964 117.395 104.951 117.379 104.925 117.35C104.925 117.35 104.218 116.562 103.75 114.747C103.715 114.61 103.695 114.477 103.695 114.476C103.69 114.442 103.686 114.405 103.682 114.365C103.682 114.365 103.621 113.752 103.88 113.101Z" fill="#32224C"/>
<g opacity="0.29">
<path d="M104.333 112.235C106.811 108.568 109.415 104.966 112.223 101.544C114.839 98.3577 117.78 95.5174 121.439 93.5579C123.44 92.4859 125.571 91.6809 127.768 91.114C127.958 91.0648 127.877 90.7697 127.686 90.819C123.824 91.8156 120.161 93.5702 117.071 96.1066C113.768 98.818 111.153 102.296 108.607 105.697C107.043 107.788 105.531 109.917 104.069 112.081C103.958 112.244 104.223 112.397 104.333 112.235Z" fill="#FFDEF1"/>
</g>
<g opacity="0.29">
<path d="M79.1475 96.2893C80.4771 99.0939 81.85 101.972 84.0391 104.222C85.2073 105.424 86.6008 106.357 88.0116 107.246C89.4578 108.158 90.9338 109.025 92.4551 109.806C94.1599 110.681 95.9214 111.444 97.742 112.044C97.9294 112.106 98.0097 111.811 97.8233 111.749C94.6379 110.699 91.6563 109.139 88.8079 107.382C87.3527 106.485 85.8812 105.567 84.6371 104.384C83.5147 103.317 82.5915 102.062 81.7921 100.74C80.8972 99.2597 80.1518 97.6962 79.4116 96.1349C79.3274 95.9571 79.0636 96.1122 79.1475 96.2893Z" fill="#FFDEF1"/>
</g>
<g opacity="0.29">
<path d="M124.563 91.8818C124.61 91.7965 124.66 91.7137 124.716 91.6337C124.743 91.5943 124.772 91.5568 124.8 91.5177C124.773 91.5555 124.795 91.5235 124.803 91.5143C124.81 91.5052 124.817 91.4962 124.824 91.4872C124.841 91.4669 124.858 91.4469 124.875 91.4271C125 91.2808 125.141 91.1536 125.29 91.032C125.252 91.0628 125.291 91.0315 125.3 91.0243C125.311 91.0165 125.321 91.0088 125.332 91.0012C125.354 90.985 125.377 90.9692 125.399 90.9537C125.445 90.9227 125.491 90.8931 125.539 90.8648C125.607 90.8237 125.639 90.7255 125.593 90.6556C125.549 90.5865 125.458 90.5567 125.384 90.6007C125.026 90.8152 124.718 91.104 124.476 91.4437C124.412 91.5346 124.352 91.6294 124.299 91.7274C124.261 91.7976 124.279 91.8973 124.354 91.9366C124.425 91.9744 124.522 91.9567 124.563 91.8818Z" fill="#FFDEF1"/>
</g>
<g opacity="0.29">
<path d="M78.5949 99.1339C79.2427 99.6015 79.9788 99.9462 80.752 100.147C80.8319 100.168 80.9181 100.121 80.9402 100.04C80.9619 99.9613 80.9136 99.8731 80.8333 99.8522C80.0817 99.6568 79.3809 99.3258 78.7493 98.8697C78.6823 98.8214 78.5789 98.8582 78.54 98.9246C78.4949 99.0017 78.5277 99.0854 78.5949 99.1339Z" fill="#FFDEF1"/>
</g>
<g opacity="0.29">
<path d="M106.903 107.18C101.272 104.109 96.4807 99.8085 91.5721 95.736C90.2078 94.6041 88.8295 93.4893 87.4187 92.4157C87.2621 92.2965 87.1096 92.562 87.2644 92.6798C92.3199 96.527 96.9286 100.942 102.146 104.58C103.629 105.614 105.161 106.578 106.749 107.444C106.921 107.538 107.076 107.274 106.903 107.18Z" fill="#FFDEF1"/>
</g>
<mask id="mask1_112_662" style="mask-type:luminance" maskUnits="userSpaceOnUse" x="88" y="110" width="19" height="13">
<path d="M104.966 112.428C104.067 111.813 103.145 111.188 102.092 110.905C101.04 110.622 99.8136 110.742 99.0158 111.484C98.5595 111.909 98.2754 112.501 97.7873 112.889C97.3121 113.266 96.6975 113.408 96.1053 113.54C95.0476 113.776 93.9898 114.012 92.932 114.248C92.4823 114.348 92.0302 114.449 91.6034 114.623C90.2884 115.158 89.3215 116.353 88.799 117.673C88.2765 118.993 88.1519 120.436 88.1353 121.855C88.1322 122.112 88.1484 122.405 88.3463 122.569C88.4776 122.678 88.658 122.701 88.8279 122.716C93.5568 123.137 98.051 120.794 102.723 119.949C103.838 119.748 105.023 119.609 105.931 118.932C106.839 118.254 107.285 116.8 106.502 115.981C106.006 115.463 105.146 115.311 104.837 114.664C104.485 113.929 105.079 113.085 105.038 112.271" fill="white"/>
</mask>
<g mask="url(#mask1_112_662)">
<path d="M100.777 110.81C100.317 111.167 99.8953 111.56 99.5235 112.007C99.1754 112.437 98.8832 112.909 98.4849 113.291C96.8796 114.849 94.1985 114.496 92.2333 115.507C92.0346 115.609 91.8408 115.728 91.6581 115.86C90.1609 116.956 89.655 118.937 89.2752 120.755C89.1375 121.405 89.0049 122.073 89.0045 122.739L88.9758 122.738C88.8096 122.726 88.6268 122.702 88.4927 122.594C88.2976 122.427 88.2789 122.139 88.2822 121.881C88.3035 120.457 88.4232 119.014 88.9462 117.694C89.4691 116.375 90.4358 115.179 91.7525 114.646C92.1778 114.471 92.6293 114.372 93.0807 114.273C94.14 114.035 95.1992 113.802 96.2528 113.563C96.8489 113.435 97.4628 113.29 97.9355 112.91C98.4257 112.525 98.7107 111.932 99.1621 111.506C99.6072 111.097 100.178 110.875 100.777 110.81Z" fill="#FFDEF1"/>
<path d="M93.8387 120.713C93.8133 121.275 93.7814 121.854 93.5682 122.369C92.035 122.689 90.4899 122.859 88.9155 122.717C88.9159 122.051 89.0486 121.384 89.1862 120.734C89.566 118.915 90.0719 116.934 91.5691 115.838C91.7518 115.707 91.9456 115.587 92.1444 115.485C92.928 115.903 93.454 116.789 93.6798 117.716C93.9215 118.683 93.8855 119.71 93.8387 120.713Z" fill="#FFDEF1"/>
<path d="M105.99 118.935C105.082 119.609 103.9 119.752 102.784 119.954C99.6694 120.51 96.6457 121.737 93.5682 122.369C93.7814 121.854 93.8133 121.275 93.8387 120.713C93.8855 119.71 93.9215 118.683 93.6798 117.716C93.454 116.789 92.928 115.903 92.1443 115.485C94.1096 114.475 96.7906 114.827 98.3959 113.27C98.7942 112.887 99.0865 112.415 99.4346 111.985C99.8064 111.539 100.228 111.146 100.688 110.789C101.178 110.737 101.682 110.784 102.154 110.909C103.207 111.187 104.127 111.817 105.024 112.429L105.099 112.27C105.139 113.087 104.546 113.934 104.894 114.664C105.006 114.903 105.196 115.071 105.409 115.216C105.785 115.47 106.243 115.653 106.559 115.986C107.346 116.8 106.899 118.255 105.99 118.935Z" fill="#065884"/>
<g opacity="0.29">
<path d="M93.7701 119.375C97.9368 118.655 101.592 116.256 105.765 115.561C105.966 115.528 105.881 115.223 105.681 115.256C101.508 115.951 97.8527 118.35 93.686 119.07C93.4858 119.105 93.5707 119.41 93.7701 119.375Z" fill="#FFDEF1"/>
</g>
<path d="M96.2575 118.168C96.5283 118.168 96.7478 117.948 96.7478 117.677C96.7478 117.407 96.5283 117.187 96.2575 117.187C95.9868 117.187 95.7673 117.407 95.7673 117.677C95.7673 117.948 95.9868 118.168 96.2575 118.168Z" stroke="#FFDEF1" stroke-width="0.143488" stroke-miterlimit="10"/>
<path d="M98.5674 117.366C98.8382 117.366 99.0576 117.147 99.0576 116.876C99.0576 116.605 98.8382 116.386 98.5674 116.386C98.2966 116.386 98.0771 116.605 98.0771 116.876C98.0771 117.147 98.2966 117.366 98.5674 117.366Z" stroke="#FFDEF1" stroke-width="0.143488" stroke-miterlimit="10"/>
<path d="M100.797 116.498C101.067 116.498 101.287 116.279 101.287 116.008C101.287 115.737 101.067 115.518 100.797 115.518C100.526 115.518 100.306 115.737 100.306 116.008C100.306 116.279 100.526 116.498 100.797 116.498Z" stroke="#FFDEF1" stroke-width="0.143488" stroke-miterlimit="10"/>
<path d="M96.1115 117.805C96.419 119.106 96.5455 120.443 96.4918 121.779C96.4806 122.056 96.9111 122.056 96.9222 121.779C96.9774 120.406 96.8426 119.027 96.5266 117.69C96.4629 117.421 96.0477 117.535 96.1115 117.805Z" fill="#FFDEF1"/>
<path d="M98.3272 116.98C98.7844 118.24 98.9408 119.608 98.7557 120.937C98.7397 121.052 98.7837 121.168 98.906 121.202C99.0067 121.229 99.1547 121.167 99.1708 121.051C99.3667 119.644 99.2276 118.203 98.7423 116.866C98.7027 116.757 98.596 116.683 98.4776 116.715C98.3722 116.744 98.2874 116.87 98.3272 116.98Z" fill="#FFDEF1"/>
<path d="M100.593 116.268C100.913 117.659 101.181 119.158 100.66 120.536C100.619 120.644 100.706 120.772 100.81 120.801C100.931 120.834 101.034 120.759 101.075 120.65C101.622 119.203 101.345 117.615 101.008 116.154C100.946 115.884 100.531 115.998 100.593 116.268Z" fill="#FFDEF1"/>
</g>
<path d="M97.8605 75.9266C96.8937 76.8317 95.3309 76.7957 94.1711 76.1638C93.0114 75.5319 92.1801 74.4246 91.4645 73.3014C90.5683 71.8947 89.7661 70.2391 90.1231 68.6043C90.2723 67.9204 90.6195 67.2839 90.6835 66.5864C90.7916 65.4081 90.0794 64.2978 90.0402 63.1148C89.9881 61.5383 91.1032 60.2118 91.7556 58.782C93.4029 55.1719 92.0797 50.8471 93.0497 46.9904C94.1491 42.6196 98.33 39.3872 102.752 39.0334C103.855 38.9452 104.988 39.0183 106.025 39.4152C107.383 39.9353 108.499 40.9868 109.319 42.2053C110.38 43.7829 110.978 45.627 111.563 47.4434C112.836 51.3966 114.109 55.3498 115.381 59.3029C115.64 60.1056 115.902 60.9332 115.843 61.7752C115.785 62.6134 115.411 63.4287 115.513 64.2628C115.696 65.7682 117.333 66.7426 117.585 68.2378C117.739 69.151 117.341 70.0559 116.953 70.8932C116.509 71.8504 116.054 72.8234 115.352 73.6035C114.649 74.3836 113.647 74.9555 112.609 74.8775C111.078 74.7625 109.994 73.3604 109.112 72.0814C108.381 71.0217 107.628 69.9027 107.483 68.6175C107.417 68.0314 107.481 67.4274 107.327 66.8587C107.118 66.0886 106.537 65.4798 106.236 64.7417C105.743 63.5299 105.914 61.8648 104.798 61.2082C104.464 61.0118 104.071 60.9551 103.688 60.9057C102.372 60.7356 101.011 60.6095 99.741 60.9967C98.4712 61.3838 97.3027 62.4018 97.109 63.7362C96.8306 65.6531 98.5646 67.4314 98.2986 69.3502C98.2185 69.9278 97.9586 70.4692 97.8971 71.0492C97.787 72.0868 98.3179 73.0742 98.4982 74.102C98.6786 75.1298 98.2445 76.4713 97.2215 76.5502" fill="#32224C"/>
<path d="M102.034 42.4795C100.872 42.5872 99.8279 43.3077 99.1176 44.2344C98.4072 45.1611 97.9934 46.2803 97.6835 47.4061C96.7891 50.6542 96.6837 54.0597 96.5838 57.4272C96.5701 57.8879 96.557 58.3544 96.659 58.8039C96.8227 59.5248 97.2689 60.146 97.732 60.7221C98.8581 62.123 100.298 63.4667 102.086 63.6536C102.937 63.7426 103.802 63.5549 104.589 63.2194C105.591 62.793 106.489 62.1254 107.185 61.2891C107.57 60.8267 107.893 60.3154 108.181 59.7867C110.668 55.2114 110.243 49.2085 107.136 45.0292C106.519 44.1987 105.789 43.4245 104.875 42.9395C103.961 42.4545 102.837 42.2899 101.881 42.6849" fill="#EF8E8F"/>
<path d="M97.803 59.2816C97.9948 60.9863 96.7266 62.6994 97.2374 64.3371C97.5027 65.1876 98.1996 65.8211 98.8674 66.4109C99.3324 66.8215 99.8092 67.2396 100.383 67.4741C100.805 67.6463 101.262 67.7117 101.713 67.7735C103.164 67.972 104.717 68.1316 106.025 67.4741C106.13 67.4216 106.237 67.3589 106.293 67.2562C106.355 67.1421 106.341 67.0033 106.327 66.8741C106.125 65.0676 106.188 63.2319 106.512 61.4434C103.564 60.822 100.615 60.2007 97.6667 59.5793" fill="#EF8E8F"/>
<path d="M100.713 42.407C98.7532 43.373 97.8644 45.2928 98.6191 46.9302C98.7477 47.2091 99.0582 47.5342 99.4565 47.4672C99.6612 47.4328 99.7975 47.3016 99.9076 47.1757C100.199 46.843 100.432 46.4843 100.6 46.1099C100.823 46.9245 101.307 47.7073 102.004 48.3818C102.199 48.5701 102.569 48.7656 102.81 48.615C102.901 48.5583 102.933 48.4688 102.961 48.3846C103.044 48.1343 103.128 47.8839 103.211 47.6335C104.416 47.8709 105.661 47.9961 106.905 48.0049C107.527 48.0093 108.26 47.9374 108.538 47.5485C108.669 47.3663 108.667 47.1499 108.644 46.9438C108.422 44.874 106.293 42.9383 103.499 42.2655C102.551 42.0371 101.369 41.9848 100.711 42.5005" fill="#32224C"/>
<path d="M126.872 23.201C125.189 17.4908 119.142 13.6153 113.295 15.467C110.735 16.3966 108.387 18.0897 107.074 20.5292C105.907 22.6974 105.398 25.8847 107.078 27.9354C108.825 30.0695 112.282 29.6209 113.595 27.2269C113.921 26.6311 114.015 26.0428 114.023 25.3732C114.03 24.8581 113.979 24.4874 114.263 24.0401C114.93 22.9907 116.422 22.6639 117.498 23.2001C120.119 24.505 119.665 27.7591 117.941 29.5487C117.013 30.5127 115.904 31.1218 114.669 31.5923C113.346 32.0964 112.297 32.96 111.924 34.3868C111.601 35.6223 111.982 36.743 112.489 37.8574C113.265 39.5618 114.112 41.237 114.992 42.8893C115.799 44.4039 116.636 45.9081 117.53 47.3731C118.157 48.4009 118.924 49.2779 120.144 49.5815C122.502 50.1678 125.182 48.3397 125.214 45.8404C125.235 44.1725 123.982 42.6922 123.198 41.3116C122.439 39.975 121.722 38.6154 121.024 37.2461C125.611 34.1862 128.521 28.7934 126.872 23.201Z" fill="#FFD691"/>
<path d="M152.272 32.982C152.177 32.928 152.078 32.8803 151.973 32.8418C149.448 31.9169 145.626 32.494 144.528 35.3093C143.947 36.7983 144.565 38.5223 146.02 39.2325C147.319 39.8668 148.573 39.5092 149.598 38.6547C149.605 38.6533 149.617 38.6522 149.623 38.6507C149.648 38.661 149.68 38.6728 149.728 38.6882C150.104 38.8072 150.458 38.9803 150.726 39.3401C151.209 39.9872 151.284 41.1348 150.595 41.6756C149.762 42.3291 148.4 41.774 147.607 41.3359C147.032 41.0182 146.533 40.5669 145.882 40.4053C145.188 40.2328 144.46 40.3167 143.81 40.5982C142.332 41.238 141.933 42.8958 141.387 44.2747C140.788 45.7854 140.244 47.3177 139.763 48.8699C139.374 50.1243 139.203 51.39 140.148 52.4507C140.797 53.1789 141.786 53.5825 142.76 53.5304C144.137 53.4567 145.135 52.5566 145.574 51.2887C145.99 50.09 146.364 48.8834 146.778 47.687C148.315 48.1419 149.916 48.2872 151.529 47.9587C153.759 47.5048 155.661 45.9451 156.595 43.879C158.529 39.5997 156.411 34.86 152.272 32.982Z" fill="#FFD691"/>
<path d="M127.037 58.119C128.984 57.4772 129.993 55.2311 129.291 53.1022C128.59 50.9732 126.442 49.7677 124.495 50.4096C122.548 51.0514 121.539 53.2975 122.24 55.4264C122.942 57.5554 125.089 58.7609 127.037 58.119Z" fill="#FFD691"/>
<path d="M141.055 61.1717C143.002 60.5299 144.085 58.5073 143.474 56.6541C142.863 54.801 140.79 53.819 138.842 54.4608C136.895 55.1027 135.812 57.1253 136.423 58.9784C137.034 60.8316 139.107 61.8136 141.055 61.1717Z" fill="#FFD691"/>
</svg>
