<svg width="27" height="32" viewBox="0 0 27 32" fill="none" xmlns="http://www.w3.org/2000/svg">
<g clip-path="url(#clip0_103_219)">
<path d="M26.03 14.87C25.53 14.32 24.85 13.97 24.12 13.87V1.07C24.12 0.48 23.65 0 23.05 0H15.58C14.99 0 14.52 0.47 14.52 1.06C14.52 1.06 14.52 1.06 14.52 1.07V13.87H12.38V4.53C12.38 4.26 12.28 4.01 12.1 3.81L8.9 0.34C8.46 -0.09 7.77 -0.09 7.33 0.34L4.13 3.81C3.95 4.01 3.85 4.26 3.85 4.53V13.87H3.19C1.43 13.87 0 15.31 0 17.08C0 17.13 0 17.19 0 17.24L0.53 27C0.7 29.81 3.03 32 5.85 32H21.05C23.87 32 26.2 29.81 26.37 27L26.9 17.28C26.96 16.39 26.64 15.52 26.03 14.87ZM16.65 2.13H21.98V4.27H20.92C20.33 4.21 19.81 4.64 19.75 5.23C19.69 5.82 20.12 6.34 20.71 6.4C20.78 6.4 20.85 6.4 20.92 6.4H21.98V9.6H20.92C20.33 9.54 19.81 9.97 19.75 10.56C19.69 11.15 20.12 11.67 20.71 11.73C20.78 11.73 20.85 11.73 20.92 11.73H21.98V13.87H16.65V2.13ZM5.98 5L8.12 2.69L10.25 5V13.92H5.98V5ZM24.24 26.84C24.14 28.53 22.74 29.84 21.05 29.84H5.85C4.16 29.84 2.76 28.53 2.66 26.84L2.13 17.12C2.13 16.82 2.24 16.54 2.45 16.33C2.64 16.13 2.91 16.01 3.19 16H23.71C24 16 24.28 16.12 24.48 16.33C24.68 16.54 24.79 16.83 24.77 17.12L24.24 26.84Z" fill="#065883"/>
<path d="M20.92 19.2H5.97999C5.38999 19.26 4.95999 19.78 5.01999 20.37C5.06999 20.88 5.46999 21.28 5.97999 21.33H20.92C21.51 21.27 21.94 20.75 21.88 20.16C21.83 19.65 21.43 19.25 20.92 19.2Z" fill="#065883"/>
</g>
<defs>
<clipPath id="clip0_103_219">
<rect width="26.91" height="32" fill="white"/>
</clipPath>
</defs>
</svg>
