<svg width="140" height="57" viewBox="0 0 140 57" fill="none" xmlns="http://www.w3.org/2000/svg">
<path d="M0.33472 45.9186H9.30587C10.2019 47.8944 11.7579 48.6729 14.6284 48.6729C18.5747 48.6729 20.3105 46.8179 20.3105 42.3295V39.3953C18.6365 41.9698 16.0637 43.3441 12.9544 43.3441C6.73305 43.3441 0.0931625 39.1536 0.0931625 28.3218V13.4764H9.06431V28.3218C9.06431 32.9901 11.3366 34.9659 14.6874 34.9659C18.0383 34.9659 20.3105 32.872 20.3105 28.3218V13.4764H29.2817V42.026C29.2817 52.321 22.7008 56.4497 14.6284 56.4497C7.62904 56.4497 1.82897 53.2175 0.331908 45.9157L0.33472 45.9186Z" fill="white"/>
<path d="M34.9076 28.6225C34.9076 19.106 41.4885 12.7008 50.8782 12.7008C60.2678 12.7008 66.61 18.8672 66.61 28.5635V43.0491H58.3551V38.1419C56.799 41.7927 53.451 43.8276 49.2042 43.8276C42.6233 43.8276 34.9076 38.9204 34.9076 28.6254V28.6225ZM57.636 28.2628C57.636 24.0132 54.8835 21.0819 50.8164 21.0819C46.7493 21.0819 43.9968 24.0132 43.9968 28.2628C43.9968 32.5123 46.7493 35.4465 50.8164 35.4465C54.8835 35.4465 57.636 32.5123 57.636 28.2628Z" fill="white"/>
<path d="M71.2753 27.903C71.2753 17.608 78.932 12.7008 85.6309 12.7008C89.1587 12.7008 92.15 14.0779 94.0038 16.7114V0.550781H102.975V27.9648C102.975 37.9001 96.276 43.8247 87.2431 43.8247C78.2101 43.8247 71.2725 37.4195 71.2725 27.903H71.2753ZM94.0038 28.2627C94.0038 24.0132 91.2512 21.0818 87.1841 21.0818C83.117 21.0818 80.3645 24.0132 80.3645 28.2627C80.3645 32.5123 83.117 35.4465 87.1841 35.4465C91.2512 35.4465 94.0038 32.5123 94.0038 28.2627Z" fill="white"/>
<path d="M107.643 28.6225C107.643 19.106 114.224 12.7008 123.614 12.7008C133.003 12.7008 139.345 18.8672 139.345 28.5635V43.0491H131.09V38.1419C129.534 41.7927 126.186 43.8276 121.94 43.8276C115.359 43.8276 107.643 38.9204 107.643 28.6254V28.6225ZM130.371 28.2628C130.371 24.0132 127.619 21.0819 123.552 21.0819C119.485 21.0819 116.732 24.0132 116.732 28.2628C116.732 32.5123 119.485 35.4465 123.552 35.4465C127.619 35.4465 130.371 32.5123 130.371 28.2628Z" fill="white"/>
</svg>
