<?xml version="1.0" encoding="utf-8"?>
<!-- Generator: Adobe Illustrator 26.0.3, SVG Export Plug-In . SVG Version: 6.00 Build 0)  -->
<svg version="1.0" id="katman_1" xmlns="http://www.w3.org/2000/svg" xmlns:xlink="http://www.w3.org/1999/xlink" x="0px" y="0px"
	 viewBox="0 0 800 600" style="enable-background:new 0 0 800 600;" xml:space="preserve">
<style type="text/css">
	.st0{fill:#E53935;}
</style>
<path class="st0" d="M399.8,68.9c127.4,0,230.7,103.3,230.7,230.7S527.2,530.3,399.8,530.3S169.1,427,169.1,299.6
	S272.4,68.9,399.8,68.9z M520.9,241.9H403.5v85.4h48.3V408c0,7.6-3,11.5-9.1,11.5c-7.2-0.1-14.3-0.6-21.5-1.6l4.2,20.2H450
	c15.1,0,23.1-8.4,23.1-25v-85.9h47.9V241.9z M276.5,371.5c-1.2,19.7-5.3,39.2-12.4,57.7l16.6,5.1c6.7-19.6,10.8-40.1,12.1-60.8
	L276.5,371.5z M317.6,372.4l-14.5,1.8c1.5,13.2,2.4,32.2,3.1,56.6l15.7-1.8C321.6,410,320.2,391.2,317.6,372.4z M412.5,347.1
	c-8.3,24.7-19.4,48.3-33.2,70.4l16.3,11.5c14.4-23.1,26-47.9,34.6-73.8L412.5,347.1z M344.2,370.2l-15.1,1.8
	c5.7,17.6,8.8,36,9.3,54.5l15.7-1.8c-1-18.5-4.3-36.7-10-54.3V370.2z M503.6,345.7l-16.1,9.8c13.1,22.1,24.7,45,34.6,68.6l16.1-11.1
	C528.2,389.9,516.6,367.4,503.6,345.7z M372,367.3l-14.2,4.2c4.9,12.2,9.1,24.7,12.7,37.3l14.8-3.6
	C381.7,392.3,377.3,379.6,372,367.3z M303.7,161.7c-7.7,27.1-22.3,51.8-42.3,71.6l4.6,21.4c3.9-3.6,7.8-7.3,11.5-11.1v116.4h99.3
	V235.2h-30.6c7.3-11,13.7-22.5,19.1-34.6v-14.4h-49.8c2.7-5.8,5.1-12.1,7.6-18.3L303.7,161.7z M358.1,305.9v35.8H336v-35.5
	L358.1,305.9z M318.5,305.9v35.8H296v-35.5L318.5,305.9z M500.5,260.8V308H424v-46.9L500.5,260.8z M318.5,252.9v35.8H296v-35.8
	H318.5z M358.1,252.9v35.8H336v-35.8H358.1z M345.2,203.3c-5.9,11-12.5,21.7-19.7,31.9h-40.4c8.2-10,15.6-20.7,22-31.9H345.2z
	 M463.3,161.2l-20.8,3.6c3.5,9,7.3,19.4,10.6,30.4h-65.6v19.6h148.1v-19.6h-61.9C470.2,182.5,466.9,171.4,463.3,161.2z"/>
</svg>
